Metropolis-Light.ufo
<glyph name="numbersign" format="1">
  <advance width="668"/>
  <unicode hex="0023"/>
  <outline>
    <contour>
      <point x="156" y="0" type="line"/>
      <point x="329" y="687" type="line"/>
      <point x="292" y="687" type="line"/>
      <point x="119" y="0" type="line"/>
    </contour>
    <contour>
      <point x="372" y="0" type="line"/>
      <point x="545" y="687" type="line"/>
      <point x="508" y="687" type="line"/>
      <point x="335" y="0" type="line"/>
    </contour>
    <contour>
      <point x="552" y="192" type="line"/>
      <point x="561" y="228" type="line"/>
      <point x="48" y="228" type="line"/>
      <point x="39" y="192" type="line"/>
    </contour>
    <contour>
      <point x="619" y="459" type="line"/>
      <point x="628" y="495" type="line"/>
      <point x="114" y="495" type="line"/>
      <point x="105" y="459" type="line"/>
    </contour>
  </outline>
</glyph>
<glyph name="ampersand" format="1">
  <advance width="645"/>
  <unicode hex="0026"/>
  <outline>
    <contour>
      <point x="383" y="-12"/>
      <point x="478" y="82"/>
      <point x="591" y="316" type="curve"/>
      <point x="558" y="331" type="line"/>
      <point x="451" y="112"/>
      <point x="366" y="24"/>
      <point x="258" y="24" type="curve" smooth="yes"/>
      <point x="160" y="24"/>
      <point x="77" y="97"/>
      <point x="77" y="184" type="curve" smooth="yes"/>
      <point x="77" y="282"/>
      <point x="180" y="328"/>
      <point x="257" y="359" type="curve" smooth="yes"/>
      <point x="366" y="403"/>
      <point x="452" y="443"/>
      <point x="452" y="536" type="curve" smooth="yes"/>
      <point x="452" y="622"/>
      <point x="379" y="695"/>
      <point x="296" y="695" type="curve" smooth="yes"/>
      <point x="211" y="695"/>
      <point x="140" y="620"/>
      <point x="140" y="535" type="curve" smooth="yes"/>
      <point x="140" y="486"/>
      <point x="163" y="443"/>
      <point x="228" y="361" type="curve" smooth="yes"/>
      <point x="300" y="271"/>
      <point x="391" y="170"/>
      <point x="567" y="-7" type="curve"/>
      <point x="603" y="10" type="line"/>
      <point x="472" y="142"/>
      <point x="341" y="280"/>
      <point x="258" y="381" type="curve" smooth="yes"/>
      <point x="197" y="455"/>
      <point x="176" y="493"/>
      <point x="176" y="534" type="curve" smooth="yes"/>
      <point x="176" y="601"/>
      <point x="230" y="659"/>
      <point x="295" y="659" type="curve" smooth="yes"/>
      <point x="361" y="659"/>
      <point x="416" y="600"/>
      <point x="416" y="537" type="curve" smooth="yes"/>
      <point x="416" y="465"/>
      <point x="345" y="434"/>
      <point x="229" y="387" type="curve" smooth="yes"/>
      <point x="165" y="361"/>
      <point x="41" y="309"/>
      <point x="41" y="186" type="curve" smooth="yes"/>
      <point x="41" y="75"/>
      <point x="141" y="-12"/>
      <point x="259" y="-12" type="curve" smooth="yes"/>
    </contour>
  </outline>
</glyph>
<glyph name="parenleft" format="1">
  <advance width="330"/>
  <unicode hex="0028"/>
  <outline>
    <contour>
      <point x="284" y="-143" type="line"/>
      <point x="167" y="-24"/>
      <point x="98" y="128"/>
      <point x="98" y="265" type="curve" smooth="yes"/>
      <point x="98" y="402"/>
      <point x="167" y="554"/>
      <point x="284" y="674" type="curve"/>
      <point x="259" y="700" type="line"/>
      <point x="135" y="572"/>
      <point x="62" y="410"/>
      <point x="62" y="265" type="curve" smooth="yes"/>
      <point x="62" y="118"/>
      <point x="135" y="-44"/>
      <point x="259" y="-170" type="curve"/>
    </contour>
  </outline>
</glyph>
<glyph name="zero" format="1">
  <advance width="646"/>
  <unicode hex="0030"/>
  <outline>
    <contour>
      <point x="478" y="-12"/>
      <point x="587" y="135"/>
      <point x="587" y="344" type="curve" smooth="yes"/>
      <point x="587" y="552"/>
      <point x="478" y="699"/>
      <point x="323" y="699" type="curve" smooth="yes"/>
      <point x="168" y="699"/>
      <point x="59" y="552"/>
      <point x="59" y="344" type="curve" smooth="yes"/>
      <point x="59" y="135"/>
      <point x="168" y="-12"/>
      <point x="323" y="-12" type="curve" smooth="yes"/>
    </contour>
    <contour>
      <point x="189" y="24"/>
      <point x="95" y="157"/>
      <point x="95" y="344" type="curve" smooth="yes"/>
      <point x="95" y="531"/>
      <point x="189" y="663"/>
      <point x="323" y="663" type="curve" smooth="yes"/>
      <point x="457" y="663"/>
      <point x="551" y="531"/>
      <point x="551" y="344" type="curve" smooth="yes"/>
      <point x="551" y="157"/>
      <point x="457" y="24"/>
      <point x="323" y="24" type="curve" smooth="yes"/>
    </contour>
  </outline>
</glyph>
<glyph name="one" format="1">
  <advance width="332"/>
  <unicode hex="0031"/>
  <outline>
    <contour>
      <point x="237" y="0" type="line"/>
      <point x="237" y="687" type="line"/>
      <point x="208" y="687" type="line"/>
      <point x="26" y="572" type="line"/>
      <point x="45" y="542" type="line"/>
      <point x="201" y="640" type="line"/>
      <point x="201" y="0" type="line"/>
    </contour>
  </outline>
</glyph>
<glyph name="two" format="1">
  <advance width="579"/>
  <unicode hex="0032"/>
  <outline>
    <contour>
      <point x="513" y="0" type="line"/>
      <point x="513" y="36" type="line"/>
      <point x="99" y="36" type="line"/>
      <point x="339" y="241" type="line" smooth="yes"/>
      <point x="443" y="330"/>
      <point x="495" y="414"/>
      <point x="495" y="498" type="curve" smooth="yes"/>
      <point x="495" y="603"/>
      <point x="413" y="699"/>
      <point x="288" y="699" type="curve" smooth="yes"/>
      <point x="206" y="699"/>
      <point x="117" y="658"/>
      <point x="55" y="567" type="curve"/>
      <point x="83" y="545" type="line"/>
      <point x="139" y="624"/>
      <point x="216" y="665"/>
      <point x="290" y="665" type="curve" smooth="yes"/>
      <point x="395" y="665"/>
      <point x="459" y="581"/>
      <point x="459" y="497" type="curve" smooth="yes"/>
      <point x="459" y="429"/>
      <point x="416" y="354"/>
      <point x="316" y="268" type="curve" smooth="yes"/>
      <point x="49" y="39" type="line"/>
      <point x="49" y="0" type="line"/>
    </contour>
  </outline>
</glyph>
<glyph name="four" format="1">
  <advance width="592"/>
  <unicode hex="0034"/>
  <outline>
    <contour>
      <point x="429" y="0" type="line"/>
      <point x="429" y="185" type="line"/>
      <point x="543" y="185" type="line"/>
      <point x="543" y="221" type="line"/>
      <point x="429" y="221" type="line"/>
      <point x="429" y="687" type="line"/>
      <point x="379" y="687" type="line"/>
      <point x="40" y="222" type="line"/>
      <point x="46" y="185" type="line"/>
      <point x="393" y="185" type="line"/>
      <point x="393" y="0" type="line"/>
    </contour>
    <contour>
      <point x="393" y="644" type="line"/>
      <point x="393" y="221" type="line"/>
      <point x="85" y="221" type="line"/>
    </contour>
  </outline>
</glyph>
<glyph name="eight" format="1">
  <advance width="563"/>
  <unicode hex="0038"/>
  <outline>
    <contour>
      <point x="406" y="-12"/>
      <point x="511" y="74"/>
      <point x="511" y="177" type="curve" smooth="yes"/>
      <point x="511" y="255"/>
      <point x="449" y="328"/>
      <point x="361" y="354" type="curve"/>
      <point x="439" y="379"/>
      <point x="494" y="448"/>
      <point x="494" y="520" type="curve" smooth="yes"/>
      <point x="494" y="617"/>
      <point x="397" y="699"/>
      <point x="281" y="699" type="curve" smooth="yes"/>
      <point x="166" y="699"/>
      <point x="70" y="617"/>
      <point x="70" y="520" type="curve" smooth="yes"/>
      <point x="70" y="449"/>
      <point x="125" y="380"/>
      <point x="202" y="354" type="curve"/>
      <point x="114" y="329"/>
      <point x="52" y="256"/>
      <point x="52" y="177" type="curve" smooth="yes"/>
      <point x="52" y="74"/>
      <point x="157" y="-12"/>
      <point x="281" y="-12" type="curve" smooth="yes"/>
    </contour>
    <contour>
      <point x="176" y="24"/>
      <point x="88" y="95"/>
      <point x="88" y="179" type="curve" smooth="yes"/>
      <point x="88" y="265"/>
      <point x="168" y="328"/>
      <point x="281" y="331" type="curve"/>
      <point x="395" y="328"/>
      <point x="475" y="265"/>
      <point x="475" y="179" type="curve" smooth="yes"/>
      <point x="475" y="95"/>
      <point x="386" y="24"/>
      <point x="281" y="24" type="curve" smooth="yes"/>
    </contour>
    <contour>
      <point x="178" y="379"/>
      <point x="106" y="438"/>
      <point x="106" y="516" type="curve" smooth="yes"/>
      <point x="106" y="596"/>
      <point x="186" y="663"/>
      <point x="281" y="663" type="curve" smooth="yes"/>
      <point x="377" y="663"/>
      <point x="458" y="596"/>
      <point x="458" y="516" type="curve" smooth="yes"/>
      <point x="458" y="438"/>
      <point x="385" y="379"/>
      <point x="281" y="373" type="curve"/>
    </contour>
  </outline>
</glyph>
<glyph name="colon" format="1">
  <advance width="205"/>
  <unicode hex="003A"/>
  <outline>
    <contour>
      <point x="120" y="437"/>
      <point x="133" y="451"/>
      <point x="133" y="468" type="curve" smooth="yes"/>
      <point x="133" y="483"/>
      <point x="120" y="497"/>
      <point x="104" y="497" type="curve" smooth="yes"/>
      <point x="86" y="497"/>
      <point x="73" y="483"/>
      <point x="73" y="468" type="curve" smooth="yes"/>
      <point x="73" y="451"/>
      <point x="86" y="437"/>
      <point x="104" y="437" type="curve" smooth="yes"/>
    </contour>
    <contour>
      <point x="120" y="-12"/>
      <point x="133" y="2"/>
      <point x="133" y="19" type="curve" smooth="yes"/>
      <point x="133" y="34"/>
      <point x="120" y="48"/>
      <point x="104" y="48" type="curve" smooth="yes"/>
      <point x="86" y="48"/>
      <point x="73" y="34"/>
      <point x="73" y="19" type="curve" smooth="yes"/>
      <point x="73" y="2"/>
      <point x="86" y="-12"/>
      <point x="104" y="-12" type="curve" smooth="yes"/>
    </contour>
  </outline>
</glyph>
<glyph name="equal" format="1">
  <advance width="593"/>
  <unicode hex="003D"/>
  <outline>
    <contour>
      <point x="526" y="426" type="line"/>
      <point x="526" y="462" type="line"/>
      <point x="67" y="462" type="line"/>
      <point x="67" y="426" type="line"/>
    </contour>
    <contour>
      <point x="526" y="206" type="line"/>
      <point x="526" y="242" type="line"/>
      <point x="67" y="242" type="line"/>
      <point x="67" y="206" type="line"/>
    </contour>
  </outline>
</glyph>
<glyph name="greater" format="1">
  <advance width="586"/>
  <unicode hex="003E"/>
  <outline>
    <contour>
      <point x="531" y="322" type="line"/>
      <point x="531" y="366" type="line"/>
      <point x="76" y="586" type="line"/>
      <point x="76" y="542" type="line"/>
      <point x="484" y="344" type="line"/>
      <point x="76" y="146" type="line"/>
      <point x="76" y="102" type="line"/>
    </contour>
  </outline>
</glyph>
<glyph name="question" format="1">
  <advance width="486"/>
  <unicode hex="003F"/>
  <outline>
    <contour>
      <point x="242" y="193" type="line"/>
      <point x="242" y="326" type="line"/>
      <point x="359" y="346"/>
      <point x="442" y="423"/>
      <point x="442" y="514" type="curve" smooth="yes"/>
      <point x="442" y="614"/>
      <point x="355" y="699"/>
      <point x="252" y="699" type="curve" smooth="yes"/>
      <point x="163" y="699"/>
      <point x="89" y="661"/>
      <point x="27" y="584" type="curve"/>
      <point x="53" y="559" type="line"/>
      <point x="103" y="629"/>
      <point x="168" y="663"/>
      <point x="250" y="663" type="curve" smooth="yes"/>
      <point x="335" y="663"/>
      <point x="406" y="594"/>
      <point x="406" y="511" type="curve" smooth="yes"/>
      <point x="406" y="430"/>
      <point x="323" y="365"/>
      <point x="206" y="356" type="curve"/>
      <point x="206" y="193" type="line"/>
    </contour>
    <component base="period" xOffset="121"/>
  </outline>
</glyph>
<glyph name="A" format="1">
  <advance width="710"/>
  <unicode hex="0041"/>
  <outline>
    <contour>
      <point x="571" y="175" type="line"/>
      <point x="571" y="211" type="line"/>
      <point x="132" y="211" type="line"/>
      <point x="132" y="175" type="line"/>
    </contour>
    <component base="V" xOffset="710" yOffset="687" xScale="-1" yScale="-1"/>
    <contour>
      <point x="355" y="687" type="move" name="top"/>
    </contour>
    <contour>
      <point x="678" y="0" type="move" name="bottom"/>
    </contour>
  </outline>
</glyph>
<glyph name="F" format="1">
  <advance width="587"/>
  <unicode hex="0046"/>
  <outline>
    <contour>
      <point x="115" y="0" type="line"/>
      <point x="115" y="342" type="line"/>
      <point x="105" y="332" type="line"/>
      <point x="509" y="332" type="line"/>
      <point x="509" y="368" type="line"/>
      <point x="105" y="368" type="line"/>
      <point x="115" y="358" type="line"/>
      <point x="115" y="661" type="line"/>
      <point x="105" y="651" type="line"/>
      <point x="550" y="651" type="line"/>
      <point x="550" y="687" type="line"/>
      <point x="79" y="687" type="line"/>
      <point x="79" y="0" type="line"/>
    </contour>
  </outline>
</glyph>
<glyph name="I" format="1">
  <advance width="194"/>
  <unicode hex="0049"/>
  <outline>
    <contour>
      <point x="115" y="0" type="line"/>
      <point x="115" y="687" type="line"/>
      <point x="79" y="687" type="line"/>
      <point x="79" y="0" type="line"/>
    </contour>
    <contour>
      <point x="97" y="687" type="move" name="top"/>
    </contour>
    <contour>
      <point x="115" y="0" type="move" name="bottom"/>
    </contour>
  </outline>
</glyph>
<glyph name="J" format="1">
  <advance width="519"/>
  <unicode hex="004A"/>
  <outline>
    <contour>
      <point x="348" y="-12"/>
      <point x="433" y="82"/>
      <point x="433" y="214" type="curve" smooth="yes"/>
      <point x="433" y="687" type="line"/>
      <point x="397" y="687" type="line"/>
      <point x="397" y="214" type="line" smooth="yes"/>
      <point x="397" y="103"/>
      <point x="327" y="24"/>
      <point x="227" y="24" type="curve" smooth="yes"/>
      <point x="155" y="24"/>
      <point x="87" y="68"/>
      <point x="48" y="130" type="curve"/>
      <point x="26" y="102" type="line"/>
      <point x="68" y="35"/>
      <point x="145" y="-12"/>
      <point x="227" y="-12" type="curve" smooth="yes"/>
    </contour>
  </outline>
</glyph>
<glyph name="K" format="1">
  <advance width="612"/>
  <unicode hex="004B"/>
  <outline>
    <contour>
      <point x="128" y="0" type="line"/>
      <point x="128" y="205" type="line"/>
      <point x="260" y="349" type="line"/>
      <point x="546" y="0" type="line"/>
      <point x="592" y="0" type="line"/>
      <point x="285" y="376" type="line"/>
      <point x="570" y="687" type="line"/>
      <point x="522" y="687" type="line"/>
      <point x="128" y="257" type="line"/>
      <point x="128" y="687" type="line"/>
      <point x="92" y="687" type="line"/>
      <point x="92" y="0" type="line"/>
    </contour>
    <contour>
      <point x="321" y="0" type="move" name="bottom"/>
    </contour>
  </outline>
</glyph>
<glyph name="L" format="1">
  <advance width="534"/>
  <unicode hex="004C"/>
  <outline>
    <contour>
      <point x="500" y="0" type="line"/>
      <point x="500" y="36" type="line"/>
      <point x="93" y="36" type="line"/>
      <point x="104" y="24" type="line"/>
      <point x="104" y="687" type="line"/>
      <point x="68" y="687" type="line"/>
      <point x="68" y="0" type="line"/>
    </contour>
    <contour>
      <point x="134" y="687" type="move" name="top"/>
    </contour>
  </outline>
</glyph>
<glyph name="N" format="1">
  <advance width="728"/>
  <unicode hex="004E"/>
  <outline>
    <contour>
      <point x="130" y="0" type="line"/>
      <point x="130" y="631" type="line"/>
      <point x="598" y="0" type="line"/>
      <point x="634" y="0" type="line"/>
      <point x="634" y="687" type="line"/>
      <point x="598" y="687" type="line"/>
      <point x="598" y="56" type="line"/>
      <point x="130" y="687" type="line"/>
      <point x="94" y="687" type="line"/>
      <point x="94" y="0" type="line"/>
    </contour>
    <contour>
      <point x="364" y="687" type="move" name="top"/>
    </contour>
    <contour>
      <point x="364" y="0" type="move" name="bottom"/>
    </contour>
  </outline>
</glyph>
<glyph name="P" format="1">
  <advance width="639"/>
  <unicode hex="0050"/>
  <outline>
    <contour>
      <point x="115" y="0" type="line"/>
      <point x="115" y="267" type="line"/>
      <point x="368" y="267" type="line" smooth="yes"/>
      <point x="507" y="267"/>
      <point x="606" y="354"/>
      <point x="606" y="477" type="curve" smooth="yes"/>
      <point x="606" y="600"/>
      <point x="507" y="687"/>
      <point x="368" y="687" type="curve" smooth="yes"/>
      <point x="79" y="687" type="line"/>
      <point x="79" y="0" type="line"/>
    </contour>
    <contour>
      <point x="115" y="651" type="line"/>
      <point x="361" y="651" type="line" smooth="yes"/>
      <point x="483" y="651"/>
      <point x="570" y="579"/>
      <point x="570" y="477" type="curve" smooth="yes"/>
      <point x="570" y="375"/>
      <point x="483" y="303"/>
      <point x="361" y="303" type="curve" smooth="yes"/>
      <point x="115" y="303" type="line"/>
    </contour>
  </outline>
</glyph>
<glyph name="W" format="1">
  <advance width="1033"/>
  <unicode hex="0057"/>
  <outline>
    <contour>
      <point x="306" y="0" type="line"/>
      <point x="517" y="629" type="line"/>
      <point x="727" y="0" type="line"/>
      <point x="766" y="0" type="line"/>
      <point x="996" y="687" type="line"/>
      <point x="957" y="687" type="line"/>
      <point x="747" y="58" type="line"/>
      <point x="536" y="687" type="line"/>
      <point x="497" y="687" type="line"/>
      <point x="287" y="58" type="line"/>
      <point x="76" y="687" type="line"/>
      <point x="37" y="687" type="line"/>
      <point x="267" y="0" type="line"/>
    </contour>
    <contour>
      <point x="517" y="687" type="move" name="top"/>
    </contour>
  </outline>
</glyph>
<glyph name="underscore" format="1">
  <advance width="592"/>
  <unicode hex="005F"/>
  <outline>
    <contour>
      <point x="594" y="-127" type="line"/>
      <point x="594" y="-91" type="line"/>
      <point x="-2" y="-91" type="line"/>
      <point x="-2" y="-127" type="line"/>
    </contour>
  </outline>
</glyph>
<glyph name="c" format="1">
  <advance width="522"/>
  <unicode hex="0063"/>
  <outline>
    <contour>
      <point x="374" y="-12"/>
      <point x="437" y="17"/>
      <point x="483" y="64" type="curve"/>
      <point x="458" y="89" type="line"/>
      <point x="418" y="49"/>
      <point x="364" y="24"/>
      <point x="306" y="24" type="curve" smooth="yes"/>
      <point x="176" y="24"/>
      <point x="84" y="121"/>
      <point x="84" y="259" type="curve" smooth="yes"/>
      <point x="84" y="396"/>
      <point x="176" y="493"/>
      <point x="306" y="493" type="curve" smooth="yes"/>
      <point x="364" y="493"/>
      <point x="418" y="468"/>
      <point x="457" y="428" type="curve"/>
      <point x="483" y="453" type="line"/>
      <point x="437" y="500"/>
      <point x="374" y="529"/>
      <point x="306" y="529" type="curve" smooth="yes"/>
      <point x="155" y="529"/>
      <point x="48" y="417"/>
      <point x="48" y="259" type="curve" smooth="yes"/>
      <point x="48" y="100"/>
      <point x="155" y="-12"/>
      <point x="306" y="-12" type="curve" smooth="yes"/>
    </contour>
    <contour>
      <point x="288" y="517" type="move" name="top"/>
    </contour>
    <contour>
      <point x="298" y="0" type="move" name="bottom"/>
    </contour>
  </outline>
</glyph>
<glyph name="e" format="1">
  <advance width="595"/>
  <unicode hex="0065"/>
  <outline>
    <contour>
      <point x="385" y="-12"/>
      <point x="475" y="21"/>
      <point x="518" y="68" type="curve"/>
      <point x="493" y="95" type="line"/>
      <point x="450" y="48"/>
      <point x="376" y="24"/>
      <point x="302" y="24" type="curve" smooth="yes"/>
      <point x="184" y="24"/>
      <point x="84" y="132"/>
      <point x="84" y="260" type="curve" smooth="yes"/>
      <point x="84" y="390"/>
      <point x="180" y="493"/>
      <point x="302" y="493" type="curve" smooth="yes"/>
      <point x="428" y="493"/>
      <point x="512" y="401"/>
      <point x="512" y="264" type="curve"/>
      <point x="518" y="278" type="line"/>
      <point x="69" y="278" type="line"/>
      <point x="69" y="242" type="line"/>
      <point x="548" y="242" type="line"/>
      <point x="548" y="414"/>
      <point x="450" y="529"/>
      <point x="302" y="529" type="curve" smooth="yes"/>
      <point x="160" y="529"/>
      <point x="48" y="411"/>
      <point x="48" y="260" type="curve" smooth="yes"/>
      <point x="48" y="112"/>
      <point x="164" y="-12"/>
      <point x="302" y="-12" type="curve" smooth="yes"/>
    </contour>
    <contour>
      <point x="302" y="517" type="move" name="top"/>
    </contour>
    <contour>
      <point x="302" y="-12" type="move" name="bottom"/>
    </contour>
  </outline>
</glyph>
<glyph name="i" format="1">
  <advance width="186"/>
  <unicode hex="0069"/>
  <outline>
    <contour>
      <point x="109" y="631"/>
      <point x="123" y="644"/>
      <point x="123" y="661" type="curve" smooth="yes"/>
      <point x="123" y="677"/>
      <point x="109" y="691"/>
      <point x="93" y="691" type="curve" smooth="yes"/>
      <point x="76" y="691"/>
      <point x="63" y="677"/>
      <point x="63" y="661" type="curve" smooth="yes"/>
      <point x="63" y="644"/>
      <point x="76" y="631"/>
      <point x="93" y="631" type="curve" smooth="yes"/>
    </contour>
    <component base="idotless"/>
    <contour>
      <point x="111" y="0" type="move" name="onogek"/>
    </contour>
    <contour>
      <point x="93" y="0" type="move" name="bottom"/>
    </contour>
  </outline>
</glyph>
<glyph name="v" format="1">
  <advance width="550"/>
  <unicode hex="0076"/>
  <outline>
    <contour>
      <point x="286" y="0" type="line"/>
      <point x="523" y="517" type="line"/>
      <point x="484" y="517" type="line"/>
      <point x="275" y="61" type="line"/>
      <point x="66" y="517" type="line"/>
      <point x="27" y="517" type="line"/>
      <point x="264" y="0" type="line"/>
    </contour>
  </outline>
</glyph>
<glyph name="w" format="1">
  <advance width="793"/>
  <unicode hex="0077"/>
  <outline>
    <contour>
      <point x="249" y="0" type="line"/>
      <point x="397" y="450" type="line"/>
      <point x="545" y="0" type="line"/>
      <point x="590" y="0" type="line"/>
      <point x="760" y="517" type="line"/>
      <point x="723" y="517" type="line"/>
      <point x="568" y="48" type="line"/>
      <point x="413" y="517" type="line"/>
      <point x="382" y="517" type="line"/>
      <point x="227" y="48" type="line"/>
      <point x="72" y="517" type="line"/>
      <point x="35" y="517" type="line"/>
      <point x="204" y="0" type="line"/>
    </contour>
    <contour>
      <point x="397" y="517" type="move" name="top"/>
    </contour>
  </outline>
</glyph>
<glyph name="x" format="1">
  <advance width="507"/>
  <unicode hex="0078"/>
  <outline>
    <contour>
      <point x="475" y="0" type="line"/>
      <point x="84" y="517" type="line"/>
      <point x="40" y="517" type="line"/>
      <point x="431" y="0" type="line"/>
    </contour>
    <contour>
      <point x="76" y="0" type="line"/>
      <point x="467" y="517" type="line"/>
      <point x="423" y="517" type="line"/>
      <point x="32" y="0" type="line"/>
    </contour>
  </outline>
</glyph>
<glyph name="cent" format="1">
  <advance width="522"/>
  <unicode hex="00A2"/>
  <outline>
    <contour>
      <point x="310" y="-74" type="line"/>
      <point x="310" y="589" type="line"/>
      <point x="274" y="589" type="line"/>
      <point x="274" y="-74" type="line"/>
    </contour>
    <component base="c"/>
  </outline>
</glyph>
<glyph name="cedilla" format="1">
  <advance width="299"/>
  <unicode hex="00B8"/>
  <outline>
    <contour>
      <point x="194" y="-192"/>
      <point x="236" y="-154"/>
      <point x="236" y="-109" type="curve" smooth="yes"/>
      <point x="236" y="-72"/>
      <point x="209" y="-45"/>
      <point x="170" y="-45" type="curve" smooth="yes"/>
      <point x="152" y="-45"/>
      <point x="129" y="-54"/>
      <point x="113" y="-67" type="curve"/>
      <point x="147" y="-67" type="line"/>
      <point x="180" y="11" type="line"/>
      <point x="141" y="11" type="line"/>
      <point x="108" y="-67" type="line"/>
      <point x="124" y="-84" type="line"/>
      <point x="132" y="-78"/>
      <point x="146" y="-73"/>
      <point x="158" y="-73" type="curve" smooth="yes"/>
      <point x="183" y="-73"/>
      <point x="200" y="-88"/>
      <point x="200" y="-109" type="curve" smooth="yes"/>
      <point x="200" y="-133"/>
      <point x="174" y="-156"/>
      <point x="144" y="-156" type="curve" smooth="yes"/>
      <point x="121" y="-156"/>
      <point x="97" y="-147"/>
      <point x="78" y="-131" type="curve"/>
      <point x="63" y="-164" type="line"/>
      <point x="87" y="-182"/>
      <point x="117" y="-192"/>
      <point x="144" y="-192" type="curve" smooth="yes"/>
    </contour>
    <contour>
      <point x="151" y="0" type="move" name="_bottom"/>
    </contour>
  </outline>
</glyph>
<glyph name="ae" format="1">
  <advance width="988"/>
  <unicode hex="00E6"/>
  <outline>
    <contour>
      <point x="381" y="-12"/>
      <point x="477" y="82"/>
      <point x="477" y="216" type="curve"/>
      <point x="477" y="315" type="line" smooth="yes"/>
      <point x="477" y="440"/>
      <point x="402" y="529"/>
      <point x="278" y="529" type="curve" smooth="yes"/>
      <point x="224" y="529"/>
      <point x="157" y="512"/>
      <point x="100" y="479" type="curve"/>
      <point x="115" y="448" type="line"/>
      <point x="163" y="477"/>
      <point x="221" y="493"/>
      <point x="273" y="493" type="curve" smooth="yes"/>
      <point x="396" y="493"/>
      <point x="441" y="402"/>
      <point x="441" y="315" type="curve" smooth="yes"/>
      <point x="441" y="216" type="line"/>
      <point x="441" y="104"/>
      <point x="362" y="24"/>
      <point x="250" y="24" type="curve" smooth="yes"/>
      <point x="154" y="24"/>
      <point x="86" y="78"/>
      <point x="86" y="155" type="curve" smooth="yes"/>
      <point x="86" y="233"/>
      <point x="157" y="289"/>
      <point x="262" y="289" type="curve" smooth="yes"/>
      <point x="327" y="289"/>
      <point x="399" y="268"/>
      <point x="454" y="248" type="curve"/>
      <point x="454" y="284" type="line"/>
      <point x="393" y="308"/>
      <point x="319" y="325"/>
      <point x="258" y="325" type="curve" smooth="yes"/>
      <point x="133" y="325"/>
      <point x="50" y="254"/>
      <point x="50" y="154" type="curve" smooth="yes"/>
      <point x="50" y="57"/>
      <point x="131" y="-12"/>
      <point x="246" y="-12" type="curve" smooth="yes"/>
    </contour>
    <component base="e" xOffset="393"/>
  </outline>
</glyph>
<glyph name="eth" format="1">
  <advance width="611"/>
  <unicode hex="00F0"/>
  <outline>
    <contour>
      <point x="183" y="24"/>
      <point x="96" y="116"/>
      <point x="96" y="245" type="curve" smooth="yes"/>
      <point x="96" y="375"/>
      <point x="183" y="467"/>
      <point x="306" y="467" type="curve" smooth="yes"/>
      <point x="432" y="467"/>
      <point x="515" y="377"/>
      <point x="515" y="249" type="curve" smooth="yes"/>
      <point x="515" y="117"/>
      <point x="428" y="24"/>
      <point x="305" y="24" type="curve" smooth="yes"/>
    </contour>
    <contour>
      <point x="426" y="524"/>
      <point x="484" y="414" type="curve"/>
      <point x="436" y="479"/>
      <point x="371" y="503"/>
      <point x="306" y="503" type="curve" smooth="yes"/>
      <point x="162" y="503"/>
      <point x="60" y="397"/>
      <point x="60" y="246" type="curve" smooth="yes"/>
      <point x="60" y="95"/>
      <point x="162" y="-12"/>
      <point x="306" y="-12" type="curve" smooth="yes"/>
      <point x="450" y="-12"/>
      <point x="551" y="99"/>
      <point x="551" y="255" type="curve" smooth="yes"/>
      <point x="551" y="440"/>
      <point x="399" y="613"/>
      <point x="230" y="713" type="curve"/>
      <point x="197" y="696" type="line"/>
      <point x="316" y="622"/>
    </contour>
    <contour>
      <point x="440" y="652" type="line"/>
      <point x="425" y="685" type="line"/>
      <point x="185" y="578" type="line"/>
      <point x="200" y="545" type="line"/>
    </contour>
  </outline>
</glyph>
<glyph name="idotless" format="1">
  <advance width="186"/>
  <unicode hex="0131"/>
  <outline>
    <contour>
      <point x="111" y="0" type="line"/>
      <point x="111" y="517" type="line"/>
      <point x="75" y="517" type="line"/>
      <point x="75" y="0" type="line"/>
    </contour>
    <contour>
      <point x="93" y="517" type="move" name="top"/>
    </contour>
    <contour>
      <point x="111" y="0" type="move" name="bottom"/>
    </contour>
  </outline>
</glyph>
<glyph name="ogonek" format="1">
  <advance width="309"/>
  <unicode hex="02DB"/>
  <outline>
    <contour>
      <point x="193" y="-173"/>
      <point x="224" y="-162"/>
      <point x="246" y="-144" type="curve"/>
      <point x="226" y="-114" type="line"/>
      <point x="213" y="-128"/>
      <point x="191" y="-137"/>
      <point x="167" y="-137" type="curve" smooth="yes"/>
      <point x="124" y="-137"/>
      <point x="99" y="-112"/>
      <point x="99" y="-70" type="curve" smooth="yes"/>
      <point x="99" y="-26"/>
      <point x="124" y="0"/>
      <point x="167" y="0" type="curve"/>
      <point x="143" y="21" type="line"/>
      <point x="96" y="15"/>
      <point x="63" y="-24"/>
      <point x="63" y="-73" type="curve" smooth="yes"/>
      <point x="63" y="-132"/>
      <point x="104" y="-173"/>
      <point x="162" y="-173" type="curve" smooth="yes"/>
    </contour>
    <contour>
      <point x="167" y="0" type="move" name="_bottom"/>
    </contour>
  </outline>
</glyph>
<glyph name="hungarumlaut" format="1">
  <advance width="458"/>
  <unicode hex="02DD"/>
  <outline>
    <contour>
      <point x="111" y="576" type="line"/>
      <point x="229" y="709" type="line"/>
      <point x="188" y="718" type="line"/>
      <point x="63" y="576" type="line"/>
    </contour>
    <contour>
      <point x="277" y="576" type="line"/>
      <point x="395" y="709" type="line"/>
      <point x="354" y="718" type="line"/>
      <point x="229" y="576" type="line"/>
    </contour>
    <contour>
      <point x="229" y="704" type="move" name="top"/>
    </contour>
    <contour>
      <point x="229" y="517" type="move" name="_top"/>
    </contour>
  </outline>
</glyph>
<glyph name="guilsinglleft" format="1">
  <advance width="277"/>
  <unicode hex="2039"/>
  <outline>
    <contour>
      <point x="232" y="60" type="line"/>
      <point x="70" y="249" type="line"/>
      <point x="232" y="437" type="line"/>
      <point x="206" y="442" type="line"/>
      <point x="38" y="249" type="line"/>
      <point x="206" y="55" type="line"/>
    </contour>
  </outline>
</glyph>
<glyph name="guilsinglright" format="1">
  <advance width="277"/>
  <unicode hex="203A"/>
  <outline>
    <contour>
      <point x="239" y="249" type="line"/>
      <point x="71" y="442" type="line"/>
      <point x="45" y="437" type="line"/>
      <point x="207" y="249" type="line"/>
      <point x="45" y="60" type="line"/>
      <point x="71" y="55" type="line"/>
    </contour>
  </outline>
</glyph>
<glyph name="lowercase_loop_reverse" format="1">
  <advance width="605"/>
  <outline>
    <contour>
      <point x="462" y="-12"/>
      <point x="561" y="100"/>
      <point x="561" y="259" type="curve" smooth="yes"/>
      <point x="561" y="417"/>
      <point x="462" y="529"/>
      <point x="321" y="529" type="curve" smooth="yes"/>
      <point x="195" y="529"/>
      <point x="89" y="406"/>
      <point x="89" y="259" type="curve" smooth="yes"/>
      <point x="89" y="112"/>
      <point x="195" y="-12"/>
      <point x="321" y="-12" type="curve" smooth="yes"/>
    </contour>
    <contour>
      <point x="218" y="24"/>
      <point x="125" y="131"/>
      <point x="125" y="259" type="curve" smooth="yes"/>
      <point x="125" y="386"/>
      <point x="218" y="493"/>
      <point x="328" y="493" type="curve" smooth="yes"/>
      <point x="443" y="493"/>
      <point x="525" y="396"/>
      <point x="525" y="259" type="curve" smooth="yes"/>
      <point x="525" y="121"/>
      <point x="443" y="24"/>
      <point x="328" y="24" type="curve" smooth="yes"/>
    </contour>
  </outline>
</glyph>
